<svg width="231" height="128" viewBox="0 0 231 128" fill="none" xmlns="http://www.w3.org/2000/svg">
<rect x="74" y="35" width="90" height="55" rx="11" stroke="#151515" stroke-width="10" stroke-linejoin="round"/>
<line y1="-2.5" x2="30" y2="-2.5" transform="matrix(-0.866025 -0.5 -0.5 0.866025 78.9807 45)" stroke="#151515" stroke-width="5"/>
<path d="M52.968 37.1703C52.1395 38.6052 50.3048 39.0969 48.8699 38.2684C47.435 37.44 46.9434 35.6052 47.7718 34.1703L52.968 37.1703ZM64.9245 16.461L52.968 37.1703L47.7718 34.1703L59.7283 13.461L64.9245 16.461Z" fill="#151515"/>
<path d="M52.1933 37.3005L43.9173 46.8465L48.0463 34.9062L52.1933 37.3005Z" fill="#151515" stroke="#151515"/>
<path d="M60.5028 13.3309L68.7789 3.78491L64.6498 15.7252L60.5028 13.3309Z" fill="#151515" stroke="#151515"/>
<line x1="80.2307" y1="84.7965" x2="54.25" y2="99.7965" stroke="#151515" stroke-width="5"/>
<path d="M52.968 90.4611C52.1395 89.0262 50.3048 88.5346 48.8699 89.363C47.435 90.1914 46.9434 92.0262 47.7718 93.4611L52.968 90.4611ZM64.9245 111.17L52.968 90.4611L47.7718 93.4611L59.7283 114.17L64.9245 111.17Z" fill="#151515"/>
<path d="M52.1933 90.3309L43.9173 80.7849L48.0463 92.7252L52.1933 90.3309Z" fill="#151515" stroke="#151515"/>
<path d="M60.5028 114.301L68.7789 123.846L64.6498 111.906L60.5028 114.301Z" fill="#151515" stroke="#151515"/>
<line y1="-2.5" x2="30" y2="-2.5" transform="matrix(0.866025 0.5 0.5 -0.866025 159 82.6314)" stroke="#151515" stroke-width="5"/>
<path d="M185.013 90.4611C185.841 89.0262 187.676 88.5346 189.111 89.363C190.546 90.1914 191.037 92.0262 190.209 93.4611L185.013 90.4611ZM173.056 111.17L185.013 90.4611L190.209 93.4611L178.252 114.17L173.056 111.17Z" fill="#151515"/>
<path d="M185.787 90.3309L194.063 80.7849L189.934 92.7252L185.787 90.3309Z" fill="#151515" stroke="#151515"/>
<path d="M177.478 114.301L169.202 123.846L173.331 111.906L177.478 114.301Z" fill="#151515" stroke="#151515"/>
<line x1="157.75" y1="40.8349" x2="183.731" y2="25.8349" stroke="#151515" stroke-width="5"/>
<path d="M185.013 37.1703C185.841 38.6052 187.676 39.0969 189.111 38.2684C190.546 37.44 191.037 35.6052 190.209 34.1703L185.013 37.1703ZM173.056 16.461L185.013 37.1703L190.209 34.1703L178.252 13.461L173.056 16.461Z" fill="#151515"/>
<path d="M185.787 37.3005L194.063 46.8465L189.934 34.9062L185.787 37.3005Z" fill="#151515" stroke="#151515"/>
<path d="M177.478 13.3309L169.202 3.78491L173.331 15.7252L177.478 13.3309Z" fill="#151515" stroke="#151515"/>
<path d="M219.5 62.6404L216.062 63.5L219.5 64.3596V62.6404Z" fill="#E3E3E3" stroke="#E3E3E3"/>
<path d="M224.543 64.3596L227.982 63.5L224.543 62.6404V64.3596Z" fill="#E3E3E3" stroke="#E3E3E3"/>
<path d="M10.1644 75.7812H20.4769C22.8206 75.7812 23.9925 74.4531 23.9925 71.7969V52.8125C23.9925 50.1562 22.8206 48.8281 20.4769 48.8281H10.1644V75.7812ZM5.47688 80V45.7812L7.96125 44.6094H20.4769C25.9456 44.6094 28.68 47.3438 28.68 52.8125V71.7969C28.68 77.2656 25.9456 80 20.4769 80H5.47688ZM50.9025 48.8281V63.8281H61.215C63.5588 63.8281 64.7306 62.5 64.7306 59.8438V52.8125C64.7306 50.1562 63.5588 48.8281 61.215 48.8281H50.9025ZM46.215 80.9375V45.7812L48.6994 44.6094H61.215C66.6838 44.6094 69.4181 47.3438 69.4181 52.8125V59.8438C69.4181 64.9375 67.0509 67.6562 62.3166 68L69.9806 78.9922L65.8556 80.9375H65.6213L56.5978 68.0469H50.9025V78.8281L46.4494 80.9375H46.215ZM94.5469 75.7812H101.812C104.156 75.7812 105.328 74.4531 105.328 71.7969V52.8125C105.328 50.1562 104.156 48.8281 101.812 48.8281H94.5469C92.2031 48.8281 91.0312 50.1562 91.0312 52.8125V71.7969C91.0312 74.4531 92.2031 75.7812 94.5469 75.7812ZM94.5469 80C89.0781 80 86.3438 77.2656 86.3438 71.7969V52.8125C86.3438 47.3438 89.0781 44.6094 94.5469 44.6094H101.812C107.281 44.6094 110.016 47.3438 110.016 52.8125V71.7969C110.016 77.2656 107.281 80 101.812 80H94.5469ZM127.551 80.9375V52.8125C127.551 47.3438 130.285 44.6094 135.754 44.6094H143.019C148.488 44.6094 151.222 47.3438 151.222 52.8125V78.8281L146.769 80.9375H146.535V52.8125C146.535 50.1562 145.363 48.8281 143.019 48.8281H135.754C133.41 48.8281 132.238 50.1562 132.238 52.8125V78.8281L127.785 80.9375H127.551ZM168.758 80V45.7812L171.242 44.6094H186.101V44.8438L184.203 48.875H173.445V60.1719H186.101V60.4062L184.203 64.4375H173.445V75.7344H190.015V75.9688L188.117 80H168.758Z" fill="#E3E3E3"/>
<path d="M219.914 75.7812H209.602C207.258 75.7812 206.086 74.4531 206.086 71.7969V52.8125C206.086 50.1562 207.258 48.8281 209.602 48.8281H219.914V75.7812ZM224.602 80V45.7812L222.117 44.6094H209.602C204.133 44.6094 201.398 47.3438 201.398 52.8125V71.7969C201.398 77.2656 204.133 80 209.602 80H224.602Z" fill="#E3E3E3"/>
</svg>
